


int Twinkle_note[] = {NOTE_C4, NOTE_C4, NOTE_G4, NOTE_G4, NOTE_A4, NOTE_A4, NOTE_G4, NOTE_F4, NOTE_F4, NOTE_E4, NOTE_E4, NOTE_D4, NOTE_D4, NOTE_C4};
int Twinkle_duration[] = {4, 4, 4, 4, 4, 4, 4, 4, 4, 4, 4, 4, 4, 4};

int Pirates_note[] = {
NOTE_D4, NOTE_D4, NOTE_D4, NOTE_D4, NOTE_D4, NOTE_D4, NOTE_D4, NOTE_D4,
NOTE_D4, NOTE_D4, NOTE_D4, NOTE_D4, NOTE_D4, NOTE_D4, NOTE_D4, NOTE_D4, 
NOTE_D4, NOTE_D4, NOTE_D4, NOTE_D4, NOTE_D4, NOTE_D4, NOTE_D4, NOTE_D4,  
NOTE_A3, NOTE_C4, NOTE_D4, NOTE_D4, NOTE_D4, NOTE_E4, NOTE_F4, NOTE_F4, 
NOTE_F4, NOTE_G4, NOTE_E4, NOTE_E4, NOTE_D4, NOTE_C4, NOTE_C4, NOTE_D4,
0, NOTE_A3, NOTE_C4, NOTE_B3, NOTE_D4, NOTE_B3, NOTE_E4, NOTE_F4,
NOTE_F4, NOTE_C4, NOTE_C4, NOTE_C4, NOTE_C4, NOTE_D4, NOTE_C4,
NOTE_D4, 0, 0, NOTE_A3, NOTE_C4, NOTE_D4, NOTE_D4, NOTE_D4, NOTE_F4,
NOTE_G4, NOTE_G4, NOTE_G4, NOTE_A4, NOTE_A4, NOTE_A4, NOTE_A4, NOTE_G4,
NOTE_A4, NOTE_D4, 0, NOTE_D4, NOTE_E3, NOTE_F4, NOTE_F4, NOTE_G4, NOTE_A4, 
NOTE_D4, 0, NOTE_D4, NOTE_F4, NOTE_E4, NOTE_E4, NOTE_F4, NOTE_D4
};
int Pirates_duration[] = {
4,8,4,8,4,8,8,8,8,4,8,4,8,4,8,8,8,8,4,8,4,8,
4,8,8,8,8,4,4,8,8,4,4,8,8,4,4,8,8,
8,4,8,8,8,4,4,8,8,4,4,8,8,4,4,8,4,
4,8,8,8,8,4,4,8,8,4,4,8,8,4,4,8,8,
8,4,8,8,8,4,4,4,8,4,8,8,8,4,4,8,8
};
//###########End of He is a Pirate song#############//

.

//##############**"Crazy Frog" song of Crazy frog album**##############//
int CrazyFrog_note[] = {
  NOTE_D4, 0, NOTE_F4, NOTE_D4, 0, NOTE_D4, NOTE_G4, NOTE_D4, NOTE_C4,
  NOTE_D4, 0, NOTE_A4, NOTE_D4, 0, NOTE_D4, NOTE_AS4, NOTE_A4, NOTE_F4,
  NOTE_D4, NOTE_A4, NOTE_D5, NOTE_D4, NOTE_C4, 0, NOTE_C4, NOTE_A3, NOTE_E4, NOTE_D4,
  0,NOTE_D4,NOTE_D4
};
int CrazyFrog_duration[] = {
  8, 8, 6, 16, 16, 16, 8, 8, 8, 
  8, 8, 6, 16, 16, 16, 8, 8, 8,
  8, 8, 8, 16, 16, 16, 16, 8, 8, 2,
  8,4,4
};
//###########End of Crazy Frog#############//



//##############**"Mario underworld" **##############//
int MarioUW_note[] = {
  NOTE_A4, NOTE_F4, NOTE_D4, NOTE_D4, NOTE_D4, NOTE_E4, NOTE_F4, NOTE_A4, NOTE_F4, NOTE_D4, NOTE_D4, NOTE_E4, NOTE_F4, NOTE_D5, NOTE_D4, NOTE_D4, NOTE_E4, NOTE_F4, NOTE_A4, NOTE_F4, NOTE_D4,
    NOTE_A4, NOTE_F4, NOTE_D4, NOTE_D4, NOTE_D4, NOTE_E4, NOTE_F4, NOTE_A4, NOTE_F4, NOTE_D4, NOTE_D4, NOTE_E4, NOTE_F4, NOTE_D5, NOTE_D4, NOTE_D4, NOTE_E4, NOTE_F4, NOTE_A4, NOTE_F4, NOTE_D4
};
int MarioUW_duration[] = {
8, 8, 8, 8, 8, 4, 8, 8, 8, 8, 8, 4, 8, 8, 8, 8, 8, 4, 8, 8, 8,
    8, 8, 8, 8, 8, 4, 8, 8, 8, 8, 8, 4, 8, 8, 8, 8, 8, 4, 8, 8, 8
};
//###########End of Mario underworld#############//


//##############**"Titanic" **##############//
int Titanic_note[] = {
 NOTE_E5, NOTE_E5, NOTE_E5, NOTE_E5, NOTE_E5, NOTE_E5, NOTE_E5, NOTE_G5, NOTE_C5, NOTE_D5, NOTE_E5,
  NOTE_F5, NOTE_F5, NOTE_F5, NOTE_F5, NOTE_F5, NOTE_E5, NOTE_E5, NOTE_E5, NOTE_E5, NOTE_E5, NOTE_D5,
  NOTE_D5, NOTE_E5, NOTE_D5, NOTE_G5
};
int Titanic_duration[] = {
   8, 8, 4, 4, 4, 8, 8, 8, 4, 4, 2,
  8, 8, 4, 4, 4, 8, 8, 8, 4, 4, 2,
  8, 8, 4, 4, 4
};
int BloodyMary_note[] = {
 NOTE_E5, NOTE_D5, NOTE_B4, NOTE_A4, NOTE_A4, NOTE_D5,
  NOTE_E5, NOTE_D5, NOTE_B4, NOTE_A4, NOTE_A4, NOTE_D5,
  NOTE_E5, NOTE_D5, NOTE_B4, NOTE_A4, NOTE_A4, NOTE_D5,
  NOTE_E5, NOTE_D5, NOTE_B4, NOTE_A4, NOTE_G4, NOTE_G4
};
int BloodyMary_duration[] = {
  8, 8, 8, 8, 4, 4,
  8, 8, 8, 8, 4, 4,
  8, 8, 8, 8, 4, 4,
  8, 8, 8, 8, 4, 4
};
//###########End of Titanic#############//

